<svg width="419" height="96" viewBox="0 0 419 96" fill="none" xmlns="http://www.w3.org/2000/svg">
    <path d="M0 14.6701H7.94538V22.0051H0V14.6701Z" fill="black"/>
    <path d="M7.94538 7.33503H31.7815V14.6701H7.94538V7.33503Z" fill="black"/>
    <path d="M31.7815 14.6701H39.7269V22.0051H31.7815V14.6701Z" fill="black"/>
    <path d="M39.7269 22.0051H47.6723V36.6751H39.7269V22.0051Z" fill="black"/>
    <path d="M7.94538 36.6751H39.7269V44.0102H7.94538V36.6751Z" fill="black"/>
    <path d="M0 29.3401H7.94538V36.6751H0V29.3401Z" fill="black"/>
    <path d="M7.94538 22.0051H15.8908V29.3401H7.94538V22.0051Z" fill="black"/>
    <path d="M55.6176 7.33503H63.563V36.6751H55.6176V7.33503Z" fill="black"/>
    <path d="M63.563 36.6751H79.4538V44.0102H63.563V36.6751Z" fill="black"/>
    <path d="M79.4538 29.3401H87.3991V36.6751H79.4538V29.3401Z" fill="black"/>
    <path d="M87.3991 7.33503H95.3445V29.3401H87.3991V7.33503Z" fill="black"/>
    <path d="M63.563 0H71.5084V7.33503H63.563V0Z" fill="black"/>
    <path d="M79.4538 0H87.3991V7.33503H79.4538V0Z" fill="black"/>
    <path d="M71.5084 7.33503H79.4538V14.6701H71.5084V7.33503Z" fill="black"/>
    <path d="M23.8361 51.3452H39.7269V58.6802H23.8361V51.3452Z" fill="black"/>
    <path d="M15.8908 58.6802H23.8361V66.0152H15.8908V58.6802Z" fill="black"/>
    <path d="M7.94538 66.0152H15.8908V88.0203H7.94538V66.0152Z" fill="black"/>
    <path d="M15.8908 88.0203H23.8361V95.3553H15.8908V88.0203Z" fill="black"/>
    <path d="M23.8361 80.6853H31.7815V88.0203H23.8361V80.6853Z" fill="black"/>
    <path d="M31.7815 88.0203H39.7269V95.3553H31.7815V88.0203Z" fill="black"/>
    <path d="M39.7269 58.6802H47.6723V88.0203H39.7269V58.6802Z" fill="black"/>
    <path d="M55.6176 58.6802H63.563V73.3503H55.6176V58.6802Z" fill="black"/>
    <path d="M63.563 51.3452H95.3445V58.6802H63.563V51.3452Z" fill="black"/>
    <path d="M95.3445 58.6802H103.29V66.0152H95.3445V58.6802Z" fill="black"/>
    <path d="M87.3991 66.0152H95.3445V73.3503H87.3991V66.0152Z" fill="black"/>
    <path d="M95.3445 73.3503H103.29V80.6853H95.3445V73.3503Z" fill="black"/>
    <path d="M71.5084 80.6853H95.3445V88.0203H71.5084V80.6853Z" fill="black"/>
    <path d="M63.563 73.3503H71.5084V80.6853H63.563V73.3503Z" fill="black"/>
    <path d="M7.94538 14.6701H31.7815V22.0051H7.94538V14.6701Z" fill="#77FF74"/>
    <path d="M15.8908 22.0051H39.7269V29.3401H15.8908V22.0051Z" fill="#77FF74"/>
    <path d="M63.563 66.0152H87.3991V73.3503H63.563V66.0152Z" fill="#77FF74"/>
    <path d="M71.5084 73.3503H95.3445V80.6853H71.5084V73.3503Z" fill="#77FF74"/>
    <path d="M23.8361 66.0152H15.8908V88.0203H23.8361V66.0152Z" fill="#77FF74"/>
    <path d="M31.7815 58.6802H23.8361V80.6853H31.7815V58.6802Z" fill="#77FF74"/>
    <path d="M79.4538 14.6701H71.5084V36.6751H79.4538V14.6701Z" fill="#77FF74"/>
    <path d="M23.8361 66.0152H15.8908V88.0203H23.8361V66.0152Z" fill="#77FF74"/>
    <path d="M87.3991 7.33503H79.4538V29.3401H87.3991V7.33503Z" fill="#77FF74"/>
    <path d="M7.94538 29.3401H39.7269V36.6751H7.94538V29.3401Z" fill="#2EAF00"/>
    <path d="M63.563 58.6802H95.3445V66.0152H63.563V58.6802Z" fill="#2EAF00"/>
    <path d="M31.7815 58.6802H39.7269V88.0203H31.7815V58.6802Z" fill="#2EAF00"/>
    <path d="M63.563 7.33503H71.5084V36.6751H63.563V7.33503Z" fill="#2EAF00"/>
    <path d="M153.84 71V34.008H143.088V30.872H168.752V34.008H157.872V71H153.84Z" fill="black"/>
    <path d="M174.357 40.216H178.197L178.324 42.904C179.519 42.0933 181.055 41.3893 182.932 40.792C184.852 40.1947 186.623 39.8533 188.245 39.768V43.096C186.41 43.096 184.554 43.3733 182.676 43.928C180.842 44.4827 179.413 45.1227 178.389 45.848V71H174.357V40.216Z" fill="black"/>
    <path d="M203.499 71.32C200.513 71.32 198.102 70.5733 196.268 69.08C194.476 67.5867 193.579 65.432 193.579 62.616C193.579 59.8853 194.774 57.6453 197.163 55.896C199.553 54.1467 203.457 53.272 208.876 53.272H211.564V52.312C211.564 48.8987 210.966 46.5093 209.771 45.144C208.619 43.736 206.977 43.032 204.844 43.032C203.692 43.032 202.539 43.16 201.387 43.416C200.235 43.6293 198.486 44.0347 196.139 44.632L195.372 41.56C198.956 40.3653 202.155 39.768 204.971 39.768C208.214 39.768 210.774 40.728 212.652 42.648C214.572 44.5253 215.531 47.5547 215.531 51.736V71H212.652L212.012 68.952C211.244 69.5493 210.027 70.104 208.363 70.616C206.699 71.0853 205.078 71.32 203.499 71.32ZM204.076 68.12C205.398 68.12 206.764 67.928 208.172 67.544C209.58 67.1173 210.71 66.6267 211.564 66.072V56.216H209.835C206.294 56.216 203.329 56.6213 200.939 57.432C198.55 58.2427 197.355 59.864 197.355 62.296C197.355 64.216 197.931 65.6667 199.083 66.648C200.235 67.6293 201.9 68.12 204.076 68.12Z" fill="black"/>
    <path d="M232.225 71L221.986 40.216H226.018L234.402 66.712L242.337 40.216H246.434L236.514 71H232.225Z" fill="black"/>
    <path d="M265.078 71.32C256.246 71.32 251.829 66.0507 251.829 55.512C251.829 50.264 252.96 46.3387 255.221 43.736C257.483 41.0907 260.512 39.768 264.31 39.768C267.723 39.768 270.411 40.8987 272.374 43.16C274.379 45.3787 275.382 48.3653 275.382 52.12L275.254 55L275.125 56.344H255.798C255.84 60.7387 256.694 63.7893 258.358 65.496C260.022 67.16 262.176 67.992 264.822 67.992C266.443 67.992 267.958 67.8 269.366 67.416C270.774 67.032 272.182 66.392 273.59 65.496L274.806 68.632C273.355 69.528 271.755 70.2107 270.005 70.68C268.299 71.1067 266.656 71.32 265.078 71.32ZM271.669 53.528V51.992C271.669 49.2613 271.008 47.0853 269.685 45.464C268.363 43.8427 266.571 43.032 264.31 43.032C261.707 43.032 259.701 43.9493 258.293 45.784C256.885 47.6187 256.054 50.2 255.798 53.528H271.669Z" fill="black"/>
    <path d="M280.738 71V68.184H287.715V31.384H280.802V28.568H291.746V68.184H298.339V71H280.738Z" fill="black"/>
    <path d="M318.563 71.32C315.662 71.32 313.08 70.5947 310.819 69.144C308.6 67.6507 306.83 65.3893 305.507 62.36C304.227 59.3307 303.587 55.5333 303.587 50.968C303.587 43.672 304.76 38.424 307.107 35.224C309.496 31.9813 313.187 30.36 318.179 30.36C321.464 30.36 324.707 31.128 327.907 32.664V40.28H324.451V34.84C322.702 34.072 320.739 33.688 318.563 33.688C316.046 33.688 313.998 34.1787 312.419 35.16C310.84 36.0987 309.624 37.8267 308.771 40.344C307.96 42.8613 307.555 46.424 307.555 51.032C307.555 56.792 308.579 61.0587 310.627 63.832C312.675 66.6053 315.406 67.992 318.819 67.992C321.72 67.992 324.6 67.3093 327.459 65.944L328.739 69.016C325.496 70.552 322.104 71.32 318.563 71.32Z" fill="black"/>
    <path d="M335.914 28.568H339.947V42.52C343.232 40.6853 346.346 39.768 349.29 39.768C352.234 39.768 354.411 40.6213 355.819 42.328C357.227 43.992 357.931 46.6373 357.931 50.264V71H353.962V50.072C353.962 47.5973 353.6 45.8053 352.875 44.696C352.149 43.5867 350.869 43.032 349.034 43.032C346.602 43.032 343.573 44.0133 339.947 45.976V71H335.914V28.568Z" fill="black"/>
    <path d="M375.25 71.32C372.263 71.32 369.852 70.5733 368.017 69.08C366.225 67.5867 365.329 65.432 365.329 62.616C365.329 59.8853 366.524 57.6453 368.914 55.896C371.303 54.1467 375.207 53.272 380.625 53.272H383.314V52.312C383.314 48.8987 382.716 46.5093 381.522 45.144C380.37 43.736 378.727 43.032 376.594 43.032C375.442 43.032 374.29 43.16 373.138 43.416C371.986 43.6293 370.236 44.0347 367.889 44.632L367.121 41.56C370.705 40.3653 373.905 39.768 376.721 39.768C379.964 39.768 382.524 40.728 384.401 42.648C386.321 44.5253 387.281 47.5547 387.281 51.736V71H384.401L383.762 68.952C382.994 69.5493 381.777 70.104 380.113 70.616C378.449 71.0853 376.828 71.32 375.25 71.32ZM375.826 68.12C377.148 68.12 378.514 67.928 379.922 67.544C381.33 67.1173 382.46 66.6267 383.314 66.072V56.216H381.586C378.044 56.216 375.079 56.6213 372.69 57.432C370.3 58.2427 369.105 59.864 369.105 62.296C369.105 64.216 369.681 65.6667 370.833 66.648C371.985 67.6293 373.65 68.12 375.826 68.12Z" fill="black"/>
    <path d="M396.039 40.216H399.367L399.624 42.2C401.672 41.2613 403.378 40.6213 404.743 40.28C406.109 39.9387 407.581 39.768 409.159 39.768C412.359 39.768 414.706 40.6213 416.199 42.328C417.693 44.0347 418.44 46.68 418.44 50.264V71H414.471V50.136C414.471 47.6187 414.066 45.8053 413.255 44.696C412.445 43.5867 411.015 43.032 408.967 43.032C407.474 43.032 406.024 43.1813 404.616 43.48C403.25 43.7787 401.736 44.3973 400.072 45.336V71H396.039V40.216Z" fill="black"/>
</svg>